<?xml version="1.0" encoding="UTF-8"?>
<svg id="katman_1" xmlns="http://www.w3.org/2000/svg" xmlns:xlink="http://www.w3.org/1999/xlink" version="1.1" viewBox="0 0 500 500">
  <!-- Generator: Adobe Illustrator 29.6.1, SVG Export Plug-In . SVG Version: 2.1.1 Build 9)  -->
  <defs>
    <style>
      .st0 {
        fill: url(#Adsız_degrade_53);
      }

      .st1 {
        fill: url(#Adsız_degrade_58);
      }

      .st2 {
        fill: url(#Adsız_degrade_56);
      }

      .st3 {
        fill: url(#Adsız_degrade_52);
      }

      .st4 {
        fill: url(#Adsız_degrade_54);
      }

      .st5 {
        fill: url(#Adsız_degrade_55);
      }

      .st6 {
        fill: url(#Adsız_degrade_57);
      }

      .st7 {
        fill: url(#Adsız_degrade_51);
      }

      .st8 {
        fill: url(#Adsız_degrade_50);
      }

      .st9 {
        fill: url(#Adsız_degrade_62);
      }

      .st10 {
        fill: url(#Adsız_degrade_61);
      }

      .st11 {
        fill: url(#Adsız_degrade_63);
      }

      .st12 {
        fill: url(#Adsız_degrade_60);
      }

      .st13 {
        fill: url(#Adsız_degrade_59);
      }

      .st14 {
        fill: url(#Adsız_degrade_11);
      }

      .st15 {
        fill: url(#Adsız_degrade_10);
      }

      .st16 {
        fill: url(#Adsız_degrade_21);
      }

      .st17 {
        fill: url(#Adsız_degrade_20);
      }

      .st18 {
        fill: url(#Adsız_degrade_29);
      }

      .st19 {
        fill: url(#Adsız_degrade_28);
      }

      .st20 {
        fill: url(#Adsız_degrade_27);
      }

      .st21 {
        fill: url(#Adsız_degrade_17);
      }

      .st22 {
        fill: url(#Adsız_degrade_16);
      }

      .st23 {
        fill: url(#Adsız_degrade_19);
      }

      .st24 {
        fill: url(#Adsız_degrade_18);
      }

      .st25 {
        fill: url(#Adsız_degrade_13);
      }

      .st26 {
        fill: url(#Adsız_degrade_12);
      }

      .st27 {
        fill: url(#Adsız_degrade_15);
      }

      .st28 {
        fill: url(#Adsız_degrade_14);
      }

      .st29 {
        fill: url(#Adsız_degrade_25);
      }

      .st30 {
        fill: url(#Adsız_degrade_24);
      }

      .st31 {
        fill: url(#Adsız_degrade_23);
      }

      .st32 {
        fill: url(#Adsız_degrade_22);
      }

      .st33 {
        fill: url(#Adsız_degrade_26);
      }

      .st34 {
        fill: url(#Adsız_degrade_38);
      }

      .st35 {
        fill: url(#Adsız_degrade_35);
      }

      .st36 {
        fill: url(#Adsız_degrade_47);
      }

      .st37 {
        fill: url(#Adsız_degrade_49);
      }

      .st38 {
        fill: url(#Adsız_degrade_48);
      }

      .st39 {
        fill: url(#Adsız_degrade_31);
      }

      .st40 {
        fill: url(#Adsız_degrade_30);
      }

      .st41 {
        fill: url(#Adsız_degrade_39);
      }

      .st42 {
        fill: url(#Adsız_degrade_37);
      }

      .st43 {
        fill: url(#Adsız_degrade_36);
      }

      .st44 {
        fill: url(#Adsız_degrade_33);
      }

      .st45 {
        fill: url(#Adsız_degrade_32);
      }

      .st46 {
        fill: url(#Adsız_degrade_34);
      }

      .st47 {
        fill: url(#Adsız_degrade_43);
      }

      .st48 {
        fill: url(#Adsız_degrade_41);
      }

      .st49 {
        fill: url(#Adsız_degrade_44);
      }

      .st50 {
        fill: url(#Adsız_degrade_40);
      }

      .st51 {
        fill: url(#Adsız_degrade_46);
      }

      .st52 {
        fill: url(#Adsız_degrade_42);
      }

      .st53 {
        fill: url(#Adsız_degrade_45);
      }

      .st54 {
        fill: url(#Adsız_degrade_4);
      }

      .st55 {
        fill: url(#Adsız_degrade_3);
      }

      .st56 {
        fill: url(#Adsız_degrade_2);
      }

      .st57 {
        fill: url(#Adsız_degrade_9);
      }

      .st58 {
        fill: url(#Adsız_degrade_8);
      }

      .st59 {
        fill: url(#Adsız_degrade_5);
      }

      .st60 {
        fill: url(#Adsız_degrade_7);
      }

      .st61 {
        fill: url(#Adsız_degrade_6);
      }

      .st62 {
        fill: url(#Adsız_degrade);
      }
    </style>
    <linearGradient id="Adsız_degrade" data-name="Adsız degrade" x1="96.1" y1="17.4" x2="439" y2="360.3" gradientTransform="translate(0 500) scale(1 -1)" gradientUnits="userSpaceOnUse">
      <stop offset="0" stop-color="#436cc4"/>
      <stop offset="1" stop-color="#c512d4"/>
    </linearGradient>
    <linearGradient id="Adsız_degrade_2" data-name="Adsız degrade 2" x1="133.2" y1="-19.6" x2="476" y2="323.2" gradientTransform="translate(0 500) scale(1 -1)" gradientUnits="userSpaceOnUse">
      <stop offset="0" stop-color="#436cc4"/>
      <stop offset="1" stop-color="#c512d4"/>
    </linearGradient>
    <linearGradient id="Adsız_degrade_3" data-name="Adsız degrade 3" x1="-28.4" y1="141.9" x2="314.5" y2="484.8" gradientTransform="translate(0 500) scale(1 -1)" gradientUnits="userSpaceOnUse">
      <stop offset="0" stop-color="#436cc4"/>
      <stop offset="1" stop-color="#c512d4"/>
    </linearGradient>
    <linearGradient id="Adsız_degrade_4" data-name="Adsız degrade 4" x1="-44.2" y1="157.6" x2="298.8" y2="500.6" gradientTransform="translate(0 500) scale(1 -1)" gradientUnits="userSpaceOnUse">
      <stop offset="0" stop-color="#436cc4"/>
      <stop offset="1" stop-color="#c512d4"/>
    </linearGradient>
    <linearGradient id="Adsız_degrade_5" data-name="Adsız degrade 5" x1="-70.5" y1="184" x2="272.4" y2="526.9" gradientTransform="translate(0 500) scale(1 -1)" gradientUnits="userSpaceOnUse">
      <stop offset="0" stop-color="#436cc4"/>
      <stop offset="1" stop-color="#c512d4"/>
    </linearGradient>
    <linearGradient id="Adsız_degrade_6" data-name="Adsız degrade 6" x1="-80.7" y1="194.1" x2="262.3" y2="537.1" gradientTransform="translate(0 500) scale(1 -1)" gradientUnits="userSpaceOnUse">
      <stop offset="0" stop-color="#436cc4"/>
      <stop offset="1" stop-color="#c512d4"/>
    </linearGradient>
    <linearGradient id="Adsız_degrade_7" data-name="Adsız degrade 7" x1="-58.3" y1="171.7" x2="284.7" y2="514.7" gradientTransform="translate(0 500) scale(1 -1)" gradientUnits="userSpaceOnUse">
      <stop offset="0" stop-color="#436cc4"/>
      <stop offset="1" stop-color="#c512d4"/>
    </linearGradient>
    <linearGradient id="Adsız_degrade_8" data-name="Adsız degrade 8" x1="6.4" y1="107" x2="349.4" y2="450" gradientTransform="translate(0 500) scale(1 -1)" gradientUnits="userSpaceOnUse">
      <stop offset="0" stop-color="#436cc4"/>
      <stop offset="1" stop-color="#c512d4"/>
    </linearGradient>
    <linearGradient id="Adsız_degrade_9" data-name="Adsız degrade 9" x1="-11.4" y1="124.9" x2="331.5" y2="467.8" gradientTransform="translate(0 500) scale(1 -1)" gradientUnits="userSpaceOnUse">
      <stop offset="0" stop-color="#436cc4"/>
      <stop offset="1" stop-color="#c512d4"/>
    </linearGradient>
    <linearGradient id="Adsız_degrade_10" data-name="Adsız degrade 10" x1="-73" y1="186.4" x2="270" y2="529.4" gradientTransform="translate(0 500) scale(1 -1)" gradientUnits="userSpaceOnUse">
      <stop offset="0" stop-color="#436cc4"/>
      <stop offset="1" stop-color="#c512d4"/>
    </linearGradient>
    <linearGradient id="Adsız_degrade_11" data-name="Adsız degrade 11" x1="-82.6" y1="196.2" x2="260.2" y2="539" gradientTransform="translate(0 500) scale(1 -1)" gradientUnits="userSpaceOnUse">
      <stop offset="0" stop-color="#436cc4"/>
      <stop offset="1" stop-color="#c512d4"/>
    </linearGradient>
    <linearGradient id="Adsız_degrade_12" data-name="Adsız degrade 12" x1="-89.9" y1="203.3" x2="253" y2="546.3" gradientTransform="translate(0 500) scale(1 -1)" gradientUnits="userSpaceOnUse">
      <stop offset="0" stop-color="#436cc4"/>
      <stop offset="1" stop-color="#c512d4"/>
    </linearGradient>
    <linearGradient id="Adsız_degrade_13" data-name="Adsız degrade 13" x1="24.9" y1="88.6" x2="367.7" y2="431.3" gradientTransform="translate(0 500) scale(1 -1)" gradientUnits="userSpaceOnUse">
      <stop offset="0" stop-color="#436cc4"/>
      <stop offset="1" stop-color="#c512d4"/>
    </linearGradient>
    <linearGradient id="Adsız_degrade_14" data-name="Adsız degrade 14" x1="-93.9" y1="207.4" x2="249" y2="550.3" gradientTransform="translate(0 500) scale(1 -1)" gradientUnits="userSpaceOnUse">
      <stop offset="0" stop-color="#436cc4"/>
      <stop offset="1" stop-color="#c512d4"/>
    </linearGradient>
    <linearGradient id="Adsız_degrade_15" data-name="Adsız degrade 15" x1="-88.5" y1="202" x2="254.4" y2="544.9" gradientTransform="translate(0 500) scale(1 -1)" gradientUnits="userSpaceOnUse">
      <stop offset="0" stop-color="#436cc4"/>
      <stop offset="1" stop-color="#c512d4"/>
    </linearGradient>
    <linearGradient id="Adsız_degrade_16" data-name="Adsız degrade 16" x1="-97" y1="210.4" x2="246" y2="553.4" gradientTransform="translate(0 500) scale(1 -1)" gradientUnits="userSpaceOnUse">
      <stop offset="0" stop-color="#436cc4"/>
      <stop offset="1" stop-color="#c512d4"/>
    </linearGradient>
    <linearGradient id="Adsız_degrade_17" data-name="Adsız degrade 17" x1="-96.8" y1="210.1" x2="246.2" y2="553.2" gradientTransform="translate(0 500) scale(1 -1)" gradientUnits="userSpaceOnUse">
      <stop offset="0" stop-color="#436cc4"/>
      <stop offset="1" stop-color="#c512d4"/>
    </linearGradient>
    <linearGradient id="Adsız_degrade_18" data-name="Adsız degrade 18" x1="-94.6" y1="208.2" x2="248.2" y2="551" gradientTransform="translate(0 500) scale(1 -1)" gradientUnits="userSpaceOnUse">
      <stop offset="0" stop-color="#436cc4"/>
      <stop offset="1" stop-color="#c512d4"/>
    </linearGradient>
    <linearGradient id="Adsız_degrade_19" data-name="Adsız degrade 19" x1="62.3" y1="51.1" x2="405.3" y2="394.1" gradientTransform="translate(0 500) scale(1 -1)" gradientUnits="userSpaceOnUse">
      <stop offset="0" stop-color="#436cc4"/>
      <stop offset="1" stop-color="#c512d4"/>
    </linearGradient>
    <linearGradient id="Adsız_degrade_20" data-name="Adsız degrade 20" x1="97.9" y1="15.5" x2="440.9" y2="358.5" gradientTransform="translate(0 500) scale(1 -1)" gradientUnits="userSpaceOnUse">
      <stop offset="0" stop-color="#436cc4"/>
      <stop offset="1" stop-color="#c512d4"/>
    </linearGradient>
    <linearGradient id="Adsız_degrade_21" data-name="Adsız degrade 21" x1="114" y1="-.6" x2="457" y2="342.3" gradientTransform="translate(0 500) scale(1 -1)" gradientUnits="userSpaceOnUse">
      <stop offset="0" stop-color="#436cc4"/>
      <stop offset="1" stop-color="#c512d4"/>
    </linearGradient>
    <linearGradient id="Adsız_degrade_22" data-name="Adsız degrade 22" x1="80.5" y1="32.9" x2="423.6" y2="375.9" gradientTransform="translate(0 500) scale(1 -1)" gradientUnits="userSpaceOnUse">
      <stop offset="0" stop-color="#436cc4"/>
      <stop offset="1" stop-color="#c512d4"/>
    </linearGradient>
    <linearGradient id="Adsız_degrade_23" data-name="Adsız degrade 23" x1="43.7" y1="69.8" x2="386.8" y2="412.9" gradientTransform="translate(0 500) scale(1 -1)" gradientUnits="userSpaceOnUse">
      <stop offset="0" stop-color="#436cc4"/>
      <stop offset="1" stop-color="#c512d4"/>
    </linearGradient>
    <linearGradient id="Adsız_degrade_24" data-name="Adsız degrade 24" x1="69.2" y1="44.2" x2="412.1" y2="387.1" gradientTransform="translate(0 500) scale(1 -1)" gradientUnits="userSpaceOnUse">
      <stop offset="0" stop-color="#436cc4"/>
      <stop offset="1" stop-color="#c512d4"/>
    </linearGradient>
    <linearGradient id="Adsız_degrade_25" data-name="Adsız degrade 25" x1="31.8" y1="81.7" x2="374.7" y2="424.5" gradientTransform="translate(0 500) scale(1 -1)" gradientUnits="userSpaceOnUse">
      <stop offset="0" stop-color="#436cc4"/>
      <stop offset="1" stop-color="#c512d4"/>
    </linearGradient>
    <linearGradient id="Adsız_degrade_26" data-name="Adsız degrade 26" x1="-90.1" y1="203.6" x2="252.8" y2="546.5" gradientTransform="translate(0 500) scale(1 -1)" gradientUnits="userSpaceOnUse">
      <stop offset="0" stop-color="#436cc4"/>
      <stop offset="1" stop-color="#c512d4"/>
    </linearGradient>
    <linearGradient id="Adsız_degrade_27" data-name="Adsız degrade 27" x1="87.4" y1="26" x2="430.4" y2="369" gradientTransform="translate(0 500) scale(1 -1)" gradientUnits="userSpaceOnUse">
      <stop offset="0" stop-color="#436cc4"/>
      <stop offset="1" stop-color="#c512d4"/>
    </linearGradient>
    <linearGradient id="Adsız_degrade_28" data-name="Adsız degrade 28" x1="-81.6" y1="195.1" x2="261.3" y2="538" gradientTransform="translate(0 500) scale(1 -1)" gradientUnits="userSpaceOnUse">
      <stop offset="0" stop-color="#436cc4"/>
      <stop offset="1" stop-color="#c512d4"/>
    </linearGradient>
    <linearGradient id="Adsız_degrade_29" data-name="Adsız degrade 29" x1="-89.8" y1="203.3" x2="253.1" y2="546.2" gradientTransform="translate(0 500) scale(1 -1)" gradientUnits="userSpaceOnUse">
      <stop offset="0" stop-color="#436cc4"/>
      <stop offset="1" stop-color="#c512d4"/>
    </linearGradient>
    <linearGradient id="Adsız_degrade_30" data-name="Adsız degrade 30" x1="120.9" y1="-7.5" x2="463.8" y2="335.4" gradientTransform="translate(0 500) scale(1 -1)" gradientUnits="userSpaceOnUse">
      <stop offset="0" stop-color="#436cc4"/>
      <stop offset="1" stop-color="#c512d4"/>
    </linearGradient>
    <linearGradient id="Adsız_degrade_31" data-name="Adsız degrade 31" x1="-66.1" y1="179.6" x2="276.8" y2="522.5" gradientTransform="translate(0 500) scale(1 -1)" gradientUnits="userSpaceOnUse">
      <stop offset="0" stop-color="#436cc4"/>
      <stop offset="1" stop-color="#c512d4"/>
    </linearGradient>
    <linearGradient id="Adsız_degrade_32" data-name="Adsız degrade 32" x1="104.8" y1="8.6" x2="447.8" y2="351.6" gradientTransform="translate(0 500) scale(1 -1)" gradientUnits="userSpaceOnUse">
      <stop offset="0" stop-color="#436cc4"/>
      <stop offset="1" stop-color="#c512d4"/>
    </linearGradient>
    <linearGradient id="Adsız_degrade_33" data-name="Adsız degrade 33" x1="-75.8" y1="189.3" x2="267.1" y2="532.2" gradientTransform="translate(0 500) scale(1 -1)" gradientUnits="userSpaceOnUse">
      <stop offset="0" stop-color="#436cc4"/>
      <stop offset="1" stop-color="#c512d4"/>
    </linearGradient>
    <linearGradient id="Adsız_degrade_34" data-name="Adsız degrade 34" x1="-83" y1="196.5" x2="259.9" y2="539.4" gradientTransform="translate(0 500) scale(1 -1)" gradientUnits="userSpaceOnUse">
      <stop offset="0" stop-color="#436cc4"/>
      <stop offset="1" stop-color="#c512d4"/>
    </linearGradient>
    <linearGradient id="Adsız_degrade_35" data-name="Adsız degrade 35" x1="-87.8" y1="201.2" x2="255.1" y2="544.2" gradientTransform="translate(0 500) scale(1 -1)" gradientUnits="userSpaceOnUse">
      <stop offset="0" stop-color="#436cc4"/>
      <stop offset="1" stop-color="#c512d4"/>
    </linearGradient>
    <linearGradient id="Adsız_degrade_36" data-name="Adsız degrade 36" x1="-87" y1="200.5" x2="255.9" y2="543.4" gradientTransform="translate(0 500) scale(1 -1)" gradientUnits="userSpaceOnUse">
      <stop offset="0" stop-color="#436cc4"/>
      <stop offset="1" stop-color="#c512d4"/>
    </linearGradient>
    <linearGradient id="Adsız_degrade_37" data-name="Adsız degrade 37" x1="-73.8" y1="187.2" x2="269.2" y2="530.2" gradientTransform="translate(0 500) scale(1 -1)" gradientUnits="userSpaceOnUse">
      <stop offset="0" stop-color="#436cc4"/>
      <stop offset="1" stop-color="#c512d4"/>
    </linearGradient>
    <linearGradient id="Adsız_degrade_38" data-name="Adsız degrade 38" x1="-63.6" y1="177.1" x2="279.3" y2="520" gradientTransform="translate(0 500) scale(1 -1)" gradientUnits="userSpaceOnUse">
      <stop offset="0" stop-color="#436cc4"/>
      <stop offset="1" stop-color="#c512d4"/>
    </linearGradient>
    <linearGradient id="Adsız_degrade_39" data-name="Adsız degrade 39" x1="50.6" y1="62.9" x2="393.5" y2="405.8" gradientTransform="translate(0 500) scale(1 -1)" gradientUnits="userSpaceOnUse">
      <stop offset="0" stop-color="#436cc4"/>
      <stop offset="1" stop-color="#c512d4"/>
    </linearGradient>
    <linearGradient id="Adsız_degrade_40" data-name="Adsız degrade 40" x1="-37.2" y1="150.7" x2="305.6" y2="493.6" gradientTransform="translate(0 500) scale(1 -1)" gradientUnits="userSpaceOnUse">
      <stop offset="0" stop-color="#436cc4"/>
      <stop offset="1" stop-color="#c512d4"/>
    </linearGradient>
    <linearGradient id="Adsız_degrade_41" data-name="Adsız degrade 41" x1="-51.4" y1="164.9" x2="291.5" y2="507.8" gradientTransform="translate(0 500) scale(1 -1)" gradientUnits="userSpaceOnUse">
      <stop offset="0" stop-color="#436cc4"/>
      <stop offset="1" stop-color="#c512d4"/>
    </linearGradient>
    <linearGradient id="Adsız_degrade_42" data-name="Adsız degrade 42" x1="-21.5" y1="135" x2="321.4" y2="477.9" gradientTransform="translate(0 500) scale(1 -1)" gradientUnits="userSpaceOnUse">
      <stop offset="0" stop-color="#436cc4"/>
      <stop offset="1" stop-color="#c512d4"/>
    </linearGradient>
    <linearGradient id="Adsız_degrade_43" data-name="Adsız degrade 43" x1="13.3" y1="100.1" x2="356.2" y2="443.1" gradientTransform="translate(0 500) scale(1 -1)" gradientUnits="userSpaceOnUse">
      <stop offset="0" stop-color="#436cc4"/>
      <stop offset="1" stop-color="#c512d4"/>
    </linearGradient>
    <linearGradient id="Adsız_degrade_44" data-name="Adsız degrade 44" x1="-4.6" y1="118" x2="338.4" y2="460.9" gradientTransform="translate(0 500) scale(1 -1)" gradientUnits="userSpaceOnUse">
      <stop offset="0" stop-color="#436cc4"/>
      <stop offset="1" stop-color="#c512d4"/>
    </linearGradient>
    <linearGradient id="Adsız_degrade_45" data-name="Adsız degrade 45" x1="-65.4" y1="178.2" x2="34.8" y2="278.4" gradientTransform="translate(0 500) scale(1 -1)" gradientUnits="userSpaceOnUse">
      <stop offset="0" stop-color="#436cc4"/>
      <stop offset="1" stop-color="#c512d4"/>
    </linearGradient>
    <linearGradient id="Adsız_degrade_46" data-name="Adsız degrade 46" x1="-79.2" y1="192.7" x2="263.7" y2="535.6" gradientTransform="translate(0 500) scale(1 -1)" gradientUnits="userSpaceOnUse">
      <stop offset="0" stop-color="#436cc4"/>
      <stop offset="1" stop-color="#c512d4"/>
    </linearGradient>
    <linearGradient id="Adsız_degrade_47" data-name="Adsız degrade 47" x1="59.2" y1="54.3" x2="402.1" y2="397.2" gradientTransform="translate(0 500) scale(1 -1)" gradientUnits="userSpaceOnUse">
      <stop offset="0" stop-color="#436cc4"/>
      <stop offset="1" stop-color="#c512d4"/>
    </linearGradient>
    <linearGradient id="Adsız_degrade_48" data-name="Adsız degrade 48" x1="4.1" y1="109.4" x2="346.9" y2="452.3" gradientTransform="translate(0 500) scale(1 -1)" gradientUnits="userSpaceOnUse">
      <stop offset="0" stop-color="#436cc4"/>
      <stop offset="1" stop-color="#c512d4"/>
    </linearGradient>
    <linearGradient id="Adsız_degrade_49" data-name="Adsız degrade 49" x1="-28.7" y1="142.1" x2="314.3" y2="485" gradientTransform="translate(0 500) scale(1 -1)" gradientUnits="userSpaceOnUse">
      <stop offset="0" stop-color="#436cc4"/>
      <stop offset="1" stop-color="#c512d4"/>
    </linearGradient>
    <linearGradient id="Adsız_degrade_50" data-name="Adsız degrade 50" x1="-42.8" y1="156.2" x2="300.1" y2="499.2" gradientTransform="translate(0 500) scale(1 -1)" gradientUnits="userSpaceOnUse">
      <stop offset="0" stop-color="#436cc4"/>
      <stop offset="1" stop-color="#c512d4"/>
    </linearGradient>
    <linearGradient id="Adsız_degrade_51" data-name="Adsız degrade 51" x1="21.9" y1="91.6" x2="364.8" y2="434.5" gradientTransform="translate(0 500) scale(1 -1)" gradientUnits="userSpaceOnUse">
      <stop offset="0" stop-color="#436cc4"/>
      <stop offset="1" stop-color="#c512d4"/>
    </linearGradient>
    <linearGradient id="Adsız_degrade_52" data-name="Adsız degrade 52" x1="113.4" y1="0" x2="456.3" y2="342.9" gradientTransform="translate(0 500) scale(1 -1)" gradientUnits="userSpaceOnUse">
      <stop offset="0" stop-color="#436cc4"/>
      <stop offset="1" stop-color="#c512d4"/>
    </linearGradient>
    <linearGradient id="Adsız_degrade_53" data-name="Adsız degrade 53" x1="-74.4" y1="187.9" x2="268.5" y2="530.8" gradientTransform="translate(0 500) scale(1 -1)" gradientUnits="userSpaceOnUse">
      <stop offset="0" stop-color="#436cc4"/>
      <stop offset="1" stop-color="#c512d4"/>
    </linearGradient>
    <linearGradient id="Adsız_degrade_54" data-name="Adsız degrade 54" x1="-81.5" y1="195" x2="261.4" y2="537.9" gradientTransform="translate(0 500) scale(1 -1)" gradientUnits="userSpaceOnUse">
      <stop offset="0" stop-color="#436cc4"/>
      <stop offset="1" stop-color="#c512d4"/>
    </linearGradient>
    <linearGradient id="Adsız_degrade_55" data-name="Adsız degrade 55" x1="77.8" y1="35.6" x2="420.7" y2="378.5" gradientTransform="translate(0 500) scale(1 -1)" gradientUnits="userSpaceOnUse">
      <stop offset="0" stop-color="#436cc4"/>
      <stop offset="1" stop-color="#c512d4"/>
    </linearGradient>
    <linearGradient id="Adsız_degrade_56" data-name="Adsız degrade 56" x1="-55" y1="168.5" x2="287.9" y2="511.4" gradientTransform="translate(0 500) scale(1 -1)" gradientUnits="userSpaceOnUse">
      <stop offset="0" stop-color="#436cc4"/>
      <stop offset="1" stop-color="#c512d4"/>
    </linearGradient>
    <linearGradient id="Adsız_degrade_57" data-name="Adsız degrade 57" x1="40.4" y1="73.1" x2="383.3" y2="416" gradientTransform="translate(0 500) scale(1 -1)" gradientUnits="userSpaceOnUse">
      <stop offset="0" stop-color="#436cc4"/>
      <stop offset="1" stop-color="#c512d4"/>
    </linearGradient>
    <linearGradient id="Adsız_degrade_58" data-name="Adsız degrade 58" x1="-81.3" y1="194.7" x2="261.7" y2="537.7" gradientTransform="translate(0 500) scale(1 -1)" gradientUnits="userSpaceOnUse">
      <stop offset="0" stop-color="#436cc4"/>
      <stop offset="1" stop-color="#c512d4"/>
    </linearGradient>
    <linearGradient id="Adsız_degrade_59" data-name="Adsız degrade 59" x1="-65.2" y1="178.6" x2="277.7" y2="521.6" gradientTransform="translate(0 500) scale(1 -1)" gradientUnits="userSpaceOnUse">
      <stop offset="0" stop-color="#436cc4"/>
      <stop offset="1" stop-color="#c512d4"/>
    </linearGradient>
    <linearGradient id="Adsız_degrade_60" data-name="Adsız degrade 60" x1="96" y1="17.4" x2="438.9" y2="360.3" gradientTransform="translate(0 500) scale(1 -1)" gradientUnits="userSpaceOnUse">
      <stop offset="0" stop-color="#436cc4"/>
      <stop offset="1" stop-color="#c512d4"/>
    </linearGradient>
    <linearGradient id="Adsız_degrade_61" data-name="Adsız degrade 61" x1="-12.9" y1="126.4" x2="330" y2="469.3" gradientTransform="translate(0 500) scale(1 -1)" gradientUnits="userSpaceOnUse">
      <stop offset="0" stop-color="#436cc4"/>
      <stop offset="1" stop-color="#c512d4"/>
    </linearGradient>
    <linearGradient id="Adsız_degrade_62" data-name="Adsız degrade 62" x1="-78.4" y1="191.9" x2="264.5" y2="534.8" gradientTransform="translate(0 500) scale(1 -1)" gradientUnits="userSpaceOnUse">
      <stop offset="0" stop-color="#436cc4"/>
      <stop offset="1" stop-color="#c512d4"/>
    </linearGradient>
    <linearGradient id="Adsız_degrade_63" data-name="Adsız degrade 63" x1="-73" y1="186.5" x2="269.9" y2="529.4" gradientTransform="translate(0 500) scale(1 -1)" gradientUnits="userSpaceOnUse">
      <stop offset="0" stop-color="#436cc4"/>
      <stop offset="1" stop-color="#c512d4"/>
    </linearGradient>
  </defs>
  <path class="st62" d="M418.1,376.3c38.6-45.2,53.9-104.5,42.1-163.4-12.5-62.5-53-114.2-111.1-141.9-23.9-11.4-51-17.2-80.3-17.2s-4,0-6,.1c-.7-.1-1.3,0-2,0-5.4.2-10.7.6-15.9,1.2-.3,0-.5,0-.8.1-4.9.6-9.7,1.3-14.4,2.2,0,0,0,0,0,0,0,0-.1-.2-.2-.3-.8-.8-2.1-.9-3.1-.3,0,0,0,0-.1,0-1.4.2-2.6,1-3.4,2.1-3.1.7-6.1,1.5-9.1,2.3,0,0,0,0,0,0,0-.4-.2-.7-.4-1.1.2,0,.3.1.5.1.3,0,.7-.1.9-.4.3-.2.4-.6.4-.9s-.1-.7-.4-.9c-.5-.5-1.4-.5-1.8,0-.3.2-.4.6-.4.9s0,.1,0,.2c-.9-.8-2.1-1.3-3.4-1.1h0c-2.1.4-3.5,2.4-3.2,4.5,0,.3.2.6.3.9-.7.2-1.3.5-2,.7-1.3-1-3.1-1.3-4.7-.8-1.8.6-3,2.1-3.4,3.8-2.3.9-4.5,1.8-6.7,2.8-1.1.5-2.1,1-3.2,1.5,1.3-1,2-2.7,1.4-4.4-.7-2-2.8-3.1-4.9-2.5-2,.7-3.2,2.9-2.5,4.9.5,1.6,2,2.7,3.7,2.7s.7,0,1.1-.2c-1.7.8-3.4,1.6-5.1,2.4-1.5-1.3-3.7-1.6-5.6-.7-2,1-3,3.1-2.8,5.2-5,2.8-9.7,5.8-14.4,9-1.7-1.6-4.3-1.8-6.4-.5-2.1,1.4-2.8,4.1-1.8,6.3-4.4,3.3-8.6,6.9-12.7,10.5-1.9-1.8-5-1.9-7-.1-2.1,1.9-2.3,5.1-.5,7.2-3.9,3.8-7.5,7.8-11,12,0,0-.1-.1-.2-.2-2.2-1.9-5.4-1.6-7.3.6-1.8,2.2-1.5,5.4.6,7.3.1.1.3.2.4.3-3.3,4.3-6.4,8.8-9.4,13.3-.2-.2-.4-.4-.7-.5-2.4-1.5-5.6-.8-7.1,1.6-1.5,2.4-.8,5.6,1.6,7.1.3.2.7.3,1,.4-2.7,4.8-5.3,9.6-7.6,14.6-.3-.3-.7-.5-1.1-.7-2.6-1.2-5.7,0-6.8,2.6-1.2,2.6,0,5.7,2.6,6.8.5.2,1,.3,1.5.4-2.1,5.1-3.9,10.3-5.6,15.6-.5-.3-.9-.6-1.5-.8-2.7-.8-5.6.8-6.4,3.5h0c-.8,2.7.7,5.6,3.5,6.4.5.1,1,.2,1.5.2s.2,0,.3,0c-1.4,5.4-2.5,10.8-3.4,16.3-.5-.3-1.2-.5-1.8-.6-2.8-.4-5.4,1.5-5.8,4.4-.4,2.8,1.5,5.5,4.4,5.9.3,0,.5,0,.8,0,.4,0,.8,0,1.2-.2-.6,5.5-1,11.1-1.2,16.7-.6-.2-1.2-.4-1.9-.4-2.9,0-5.2,2.3-5.2,5.1s2.3,5.2,5.1,5.2h0c.7,0,1.3-.1,1.9-.4.1,5.5.5,11.1,1.1,16.7-.6-.1-1.2-.2-1.9,0-2.8.4-4.8,3-4.4,5.8.4,2.6,2.6,4.4,5.1,4.4s.5,0,.7,0c.6,0,1.2-.3,1.7-.6.9,5.4,1.9,10.9,3.3,16.3-.5,0-1.1,0-1.6.2-2.7.8-4.3,3.6-3.6,6.4.6,2.3,2.7,3.7,5,3.7s1,0,1.4-.2c.5-.2,1-.4,1.4-.7,1.6,5.2,3.3,10.4,5.4,15.6-.4,0-.9.2-1.3.4-2.6,1.1-3.8,4.2-2.7,6.8.9,2,2.8,3.1,4.8,3.1s1.4-.2,2.1-.4c.4-.2.7-.4,1-.6,2.2,5,4.7,9.9,7.3,14.6-.3.1-.6.2-.9.4-2.5,1.5-3.2,4.6-1.8,7.1,1,1.6,2.7,2.5,4.4,2.5s1.8-.2,2.7-.7c.2-.1.4-.3.6-.5,2.9,4.7,5.9,9.2,9.1,13.5-.1,0-.2.1-.4.2-2.2,1.8-2.6,5-.8,7.3,1,1.3,2.5,1.9,4,1.9s2.3-.4,3.2-1.2c0,0,0-.1.2-.2,3.4,4.2,7,8.3,10.8,12.2-1.8,2.1-1.7,5.3.4,7.1,1,.9,2.2,1.4,3.5,1.4s2.5-.5,3.4-1.3c4,3.7,8.2,7.3,12.5,10.7-1,2.2-.3,4.9,1.7,6.4.9.6,1.9.9,2.9.9s2.5-.5,3.4-1.3c4.6,3.2,9.3,6.3,14.3,9.1-.3,2.1.7,4.2,2.8,5.2.7.4,1.6.6,2.4.6,1.2,0,2.3-.5,3.3-1.2,2.9,1.5,5.8,2.9,8.8,4.3,2.4,1.1,4.9,2.1,7.3,3.1.4,1.7,1.6,3.2,3.4,3.9.5.2,1.1.3,1.6.3,1.1,0,2.2-.4,3.1-1.1.7.2,1.3.5,2,.7-.2.3-.3.7-.3,1-.4,2.1,1,4.1,3.2,4.5.2,0,.4,0,.7,0,1.8,0,3.5-1.3,3.8-3.2,0,0,0,0,0-.1,3,.9,6.1,1.7,9.1,2.4.8,1.1,1.9,1.9,3.4,2.2.2,0,.3,0,.5,0,.4.2.8.4,1.3.4.7,0,1.3-.3,1.8-.8s.1-.2.2-.3c4.6.9,9.2,1.6,13.9,2.1.4.1.8.2,1.3.2s.2,0,.3,0c5.1.6,10.3.9,15.6,1.1.4.1.9.2,1.3.2s.7,0,1.1-.1c1.9,0,3.8.1,5.8.1,31.2,0,60.5-6.6,87-19.5l15.9,16.9h110.7l-62.2-67.4ZM324.2,274.1h-110.7l63.7,69.7c-2.9.3-6.1.4-9.5.4-14,0-26.2-2.6-36.2-7.7-10.1-5.1-18.5-12-25.1-20.6-19.4-25.2-25.5-64.6-15.3-100.3,6.6-23.1,20.4-41,40-51.6,10-5.4,22.1-8.1,36-8.1s25.6,2.6,35.6,7.7c10.1,5.1,18.6,12.1,25.4,20.6,17.8,22.6,24.6,57.6,17.8,91.4-1.2,5.9-2.8,11.6-5,17.1l-16.9-18.6Z"/>
  <path class="st56" d="M210.7,440.3c-.2.3-.4.6-.4.9s.1.7.4.9c.2.2.6.4.9.4s.7-.1.9-.4c.3-.3.4-.6.4-.9s-.1-.6-.4-.9c-.5-.5-1.3-.5-1.8,0Z"/>
  <path class="st55" d="M27.9,300.2c-.7.2-1.1.9-.9,1.6.2.6.7.9,1.3.9s.2,0,.3,0c.7-.2,1.1-.9.9-1.6-.2-.7-.9-1.1-1.6-.9Z"/>
  <path class="st54" d="M22.6,274.2c-.7,0-1.2.7-1.1,1.4,0,.6.6,1.1,1.3,1.1h.2c.7-.1,1.2-.8,1.1-1.5-.1-.7-.7-1.2-1.5-1.1Z"/>
  <path class="st59" d="M23.2,221.2c-.7-.1-1.3.4-1.4,1.1-.1.7.4,1.3,1.1,1.4,0,0,.1,0,.2,0,.6,0,1.2-.5,1.3-1.1,0-.7-.4-1.4-1.1-1.5Z"/>
  <path class="st61" d="M29,195.3c-.7-.2-1.4.2-1.6.9-.2.7.2,1.4.9,1.6.1,0,.2,0,.4,0,.5,0,1.1-.4,1.2-.9.2-.7-.2-1.4-.9-1.6Z"/>
  <path class="st60" d="M22.3,249c0-.7-.6-1.3-1.3-1.3s-1.3.6-1.3,1.3.6,1.3,1.3,1.3,1.3-.6,1.3-1.3Z"/>
  <path class="st58" d="M48.7,348.9c-.6.4-.8,1.2-.4,1.8h0c.3.4.7.6,1.1.6s.5,0,.7-.2c.6-.4.8-1.2.4-1.8-.4-.6-1.2-.8-1.8-.4Z"/>
  <path class="st57" d="M36.7,325.2c-.6.3-1,1-.7,1.7.2.5.7.8,1.2.8s.3,0,.5-.1c.6-.3,1-1,.7-1.7-.3-.6-1.1-.9-1.7-.6Z"/>
  <path class="st15" d="M178.8,63.1c0,0,.2,0,.2,0,.7-.1,1.2-.8,1-1.5-.1-.7-.8-1.2-1.5-1.1-.7.1-1.2.8-1.1,1.5.1.6.6,1.1,1.3,1.1Z"/>
  <path class="st14" d="M153.1,69.4c.1,0,.3,0,.4,0,.7-.2,1.1-1,.8-1.7-.2-.7-1-1-1.6-.8h0c-.7.2-1,.9-.8,1.6.2.5.7.9,1.2.9Z"/>
  <path class="st26" d="M128.5,79.5c.2,0,.4,0,.6-.1.6-.3.9-1.1.6-1.7-.3-.6-1.1-.9-1.7-.6-.6.3-.9,1.1-.6,1.7.2.4.7.7,1.2.7Z"/>
  <path class="st25" d="M63.8,370.7c-.6.4-.6,1.3-.2,1.8.2.3.6.5,1,.5s.6-.1.8-.3c.5-.5.6-1.3.2-1.8-.4-.5-1.3-.6-1.8-.2Z"/>
  <path class="st28" d="M49.7,149.4c.2.1.5.2.7.2.4,0,.9-.2,1.1-.6.4-.6.2-1.4-.4-1.8-.6-.4-1.4-.2-1.8.4-.4.6-.2,1.4.4,1.8Z"/>
  <path class="st27" d="M37.3,172.9c.2,0,.4.1.5.1.5,0,1-.3,1.2-.8.3-.7,0-1.4-.6-1.7-.6-.3-1.4,0-1.7.6-.3.6,0,1.4.6,1.7Z"/>
  <path class="st22" d="M84.7,109.2c.3,0,.6-.1.9-.3.5-.5.6-1.3.1-1.8-.5-.5-1.3-.6-1.8-.1-.5.5-.6,1.3-.1,1.8.2.3.6.4,1,.4Z"/>
  <path class="st21" d="M66.1,128.2c.4,0,.7-.2,1-.4.5-.6.4-1.4-.1-1.8s-1.4-.4-1.8.2c-.5.5-.4,1.3.2,1.8.2.2.5.3.8.3Z"/>
  <path class="st24" d="M105.6,92.9c.2,0,.5,0,.7-.2.6-.4.7-1.2.3-1.8-.4-.6-1.2-.7-1.8-.3-.6.4-.8,1.2-.4,1.8.3.4.7.6,1.1.6Z"/>
  <path class="st23" d="M104.2,406.7c-.6-.4-1.4-.3-1.8.3s-.3,1.4.3,1.8c.2.2.5.2.7.2.4,0,.8-.2,1.1-.6.4-.6.3-1.4-.3-1.8h0Z"/>
  <path class="st17" d="M151.1,430.5c-.7-.2-1.4.2-1.6.8-.2.7.1,1.4.8,1.6.1,0,.3,0,.4,0,.5,0,1-.4,1.2-.9.2-.7-.1-1.4-.8-1.7Z"/>
  <path class="st16" d="M176.6,437c-.7-.1-1.4.4-1.5,1.1-.1.7.4,1.4,1.1,1.5h.2c.6,0,1.2-.4,1.3-1.1.1-.7-.4-1.4-1.1-1.5Z"/>
  <path class="st32" d="M126.8,420.2c-.6-.3-1.4,0-1.8.6-.3.6,0,1.4.6,1.7.2.1.4.2.6.2.5,0,.9-.3,1.1-.7.3-.6,0-1.4-.5-1.8Z"/>
  <path class="st31" d="M83.7,390.2c-.5-.5-1.3-.5-1.8,0s-.5,1.3,0,1.8c.2.2.5.3.9.3s.7-.1,1-.4c.5-.5.5-1.3,0-1.8h0Z"/>
  <path class="st30" d="M115.1,406.3c-.8,1.2-.5,2.8.6,3.6.4.3,1,.5,1.5.5.8,0,1.6-.4,2.1-1.1.8-1.2.5-2.8-.6-3.6-1.2-.8-2.8-.5-3.6.7Z"/>
  <path class="st29" d="M76.8,369.7c-1.1.9-1.3,2.5-.4,3.6h0c.5.6,1.2,1,2,1s1.2-.2,1.6-.6c1.1-.9,1.3-2.5.4-3.6-.9-1.1-2.5-1.3-3.6-.4Z"/>
  <path class="st33" d="M98.4,110.5c.6,0,1.2-.2,1.7-.7,1.1-.9,1.2-2.6.2-3.6-1-1.1-2.6-1.1-3.6-.2-1.1,1-1.2,2.6-.2,3.7.5.6,1.2.9,1.9.9Z"/>
  <path class="st20" d="M141.2,419.1c-1.3-.6-2.8-.2-3.5,1.1-.6,1.3-.2,2.8,1.1,3.5.4.2.8.3,1.2.3.9,0,1.8-.5,2.3-1.4.6-1.3.1-2.8-1.1-3.5Z"/>
  <path class="st19" d="M50.5,174c.4.2.7.2,1.1.2,1,0,1.9-.6,2.4-1.5.6-1.3,0-2.8-1.3-3.4-1.3-.6-2.8,0-3.4,1.3-.6,1.3,0,2.8,1.3,3.4Z"/>
  <path class="st18" d="M79.9,129.5c.7,0,1.5-.3,2-.9.9-1.1.8-2.7-.3-3.6-1.1-.9-2.7-.8-3.6.3-.9,1.1-.8,2.7.3,3.6.5.4,1.1.6,1.7.6Z"/>
  <path class="st40" d="M190.6,435.7c-1.4-.3-2.8.7-3,2.1-.2,1.4.7,2.7,2.1,3,.2,0,.3,0,.5,0,1.2,0,2.3-.9,2.5-2.1.2-1.4-.7-2.8-2.1-3Z"/>
  <path class="st39" d="M192.6,64.3c.2,0,.3,0,.4,0,1.4-.2,2.4-1.6,2.1-3-.3-1.4-1.6-2.4-3-2.1-1.4.3-2.4,1.6-2.1,3,.2,1.2,1.3,2.1,2.6,2.1Z"/>
  <path class="st45" d="M165.3,429.3c-1.4-.5-2.8.3-3.3,1.6-.5,1.3.3,2.8,1.6,3.3.3,0,.5.1.8.1,1.1,0,2.1-.7,2.5-1.8.4-1.4-.3-2.8-1.6-3.3Z"/>
  <path class="st44" d="M166.8,70.7c.3,0,.5,0,.8-.1,1.3-.4,2.1-1.9,1.7-3.3-.5-1.4-1.9-2.1-3.3-1.7-1.3.4-2.1,1.9-1.7,3.3.4,1.1,1.4,1.8,2.5,1.8Z"/>
  <path class="st46" d="M142.3,80.8c.4,0,.8,0,1.1-.3,1.3-.6,1.8-2.2,1.2-3.5-.6-1.3-2.2-1.8-3.5-1.2-1.3.6-1.8,2.2-1.2,3.5.4.9,1.4,1.4,2.3,1.4Z"/>
  <path class="st35" d="M119.3,94.2c.5,0,1-.1,1.4-.4,1.2-.8,1.5-2.4.7-3.6-.8-1.2-2.4-1.5-3.6-.7-1.2.8-1.5,2.4-.7,3.6.5.8,1.3,1.1,2.1,1.1Z"/>
  <path class="st43" d="M62.8,150.5c.4.3.9.4,1.4.4.9,0,1.7-.4,2.2-1.2.7-1.2.4-2.8-.8-3.6-1.2-.8-2.8-.4-3.6.8-.7,1.2-.4,2.8.8,3.6Z"/>
  <path class="st42" d="M43.1,194.1c-1.4-.4-2.8.4-3.2,1.8-.4,1.4.4,2.8,1.8,3.2.2,0,.5.1.7.1,1.1,0,2.1-.7,2.5-1.9.4-1.4-.4-2.8-1.8-3.2Z"/>
  <path class="st34" d="M37.1,220c-1.4-.2-2.7.8-2.9,2.2-.2,1.4.8,2.7,2.2,2.9.1,0,.3,0,.4,0,1.3,0,2.4-.9,2.6-2.2.2-1.4-.8-2.7-2.2-2.9Z"/>
  <path class="st41" d="M94.7,389.4c-1,1.1-.9,2.7.1,3.6h0c.5.5,1.1.7,1.8.7s1.4-.3,1.9-.8c1-1,.9-2.7-.2-3.6-1-1-2.7-.9-3.6.1Z"/>
  <path class="st50" d="M36.2,272.9c-1.4.2-2.4,1.5-2.2,2.9.2,1.3,1.3,2.2,2.6,2.2s.2,0,.4,0c1.4-.2,2.4-1.5,2.2-2.9-.2-1.4-1.5-2.4-2.9-2.2Z"/>
  <path class="st48" d="M37.4,249c0-1.4-1.1-2.6-2.6-2.6-1.4,0-2.6,1.1-2.6,2.6s1.1,2.6,2.6,2.6c1.4,0,2.6-1.2,2.6-2.6Z"/>
  <path class="st52" d="M41.3,299c-1.4.4-2.2,1.8-1.8,3.2.3,1.1,1.4,1.9,2.5,1.9s.5,0,.7-.1c1.4-.4,2.2-1.8,1.8-3.2-.4-1.4-1.8-2.2-3.2-1.8Z"/>
  <path class="st47" d="M65.4,348.7c-.7-1.2-2.4-1.6-3.6-.9-1.2.7-1.6,2.3-.9,3.5.5.8,1.3,1.3,2.2,1.3s.9-.1,1.3-.4c1.2-.7,1.6-2.3.9-3.5Z"/>
  <path class="st49" d="M50,324.1c-1.3.6-1.9,2.1-1.3,3.4.4,1,1.4,1.5,2.4,1.5s.7,0,1-.2c1.3-.6,1.9-2.1,1.3-3.4-.6-1.3-2.1-1.9-3.4-1.3Z"/>
  <path class="st53" d="M34.2,222.1h0s0,0,0,0h0Z"/>
  <path class="st51" d="M136.5,95.5c.7,0,1.5-.2,2.2-.6,1.8-1.2,2.2-3.6,1.1-5.4-1.2-1.8-3.6-2.2-5.4-1-1.8,1.2-2.2,3.6-1,5.4.7,1.1,2,1.7,3.2,1.7Z"/>
  <path class="st36" d="M116.4,388.3c-1.5-1.4-4-1.4-5.5.2-1.4,1.6-1.3,4,.2,5.5.7.7,1.7,1,2.6,1s2.1-.4,2.8-1.2c1.5-1.6,1.4-4-.2-5.5Z"/>
  <path class="st38" d="M66.7,322.9c-2,.9-2.9,3.1-2,5.1.6,1.5,2.1,2.3,3.6,2.3s1-.1,1.5-.3c2-.9,2.8-3.1,2-5.1-.9-2-3.1-2.9-5.1-2Z"/>
  <path class="st37" d="M57.6,274.9c-.3-2.1-2.2-3.6-4.4-3.3-2.1.3-3.6,2.2-3.3,4.4.3,1.9,1.9,3.3,3.8,3.3s.4,0,.5,0c2.1-.3,3.6-2.2,3.3-4.4Z"/>
  <path class="st8" d="M52,252.9c2.1,0,3.9-1.7,3.9-3.9s-1.7-3.9-3.8-3.9c-2.1,0-3.9,1.7-3.9,3.8s1.7,3.9,3.9,3.9Z"/>
  <path class="st7" d="M78.4,346.7c-1.8,1.1-2.4,3.5-1.3,5.3.7,1.2,2,1.9,3.3,1.9s1.4-.2,2-.6c1.8-1.1,2.4-3.5,1.3-5.3-1.1-1.8-3.5-2.4-5.3-1.3Z"/>
  <path class="st3" d="M182.8,428.1c-2-.7-4.2.4-4.9,2.4-.7,2,.4,4.2,2.4,4.9.4.1.8.2,1.2.2,1.6,0,3.1-1,3.7-2.7.7-2-.4-4.2-2.4-4.9Z"/>
  <path class="st0" d="M159.5,82.1c.6,0,1.2-.1,1.7-.4,1.9-1,2.7-3.3,1.8-5.2-1-1.9-3.3-2.7-5.2-1.8-1.9,1-2.7,3.3-1.8,5.2.7,1.4,2,2.1,3.5,2.1Z"/>
  <path class="st4" d="M115.6,111.8c.9,0,1.8-.3,2.6-1,1.6-1.4,1.7-3.9.3-5.5-1.4-1.6-3.9-1.7-5.4-.3-1.6,1.4-1.7,3.9-.3,5.5.8.8,1.8,1.3,2.9,1.3Z"/>
  <path class="st5" d="M136.6,404.6h0c-1.8-1.2-4.2-.8-5.4,1-1.2,1.8-.8,4.2,1,5.4.7.5,1.4.7,2.2.7,1.2,0,2.4-.6,3.2-1.7,1.2-1.8.8-4.2-1-5.4Z"/>
  <path class="st2" d="M50.1,221.9c-.3,2.1,1.2,4.1,3.3,4.4.2,0,.4,0,.6,0,1.9,0,3.6-1.4,3.8-3.3.3-2.1-1.2-4.1-3.3-4.4-2.1-.3-4.1,1.2-4.4,3.3Z"/>
  <path class="st6" d="M93.2,368.7c-1.7,1.3-1.9,3.8-.6,5.4.7,1,1.9,1.4,3,1.4s1.7-.3,2.5-.9c1.7-1.3,1.9-3.8.6-5.4-1.3-1.7-3.8-1.9-5.4-.6Z"/>
  <path class="st1" d="M97.1,130.8c1.1,0,2.2-.5,3-1.4,1.4-1.6,1.2-4.1-.5-5.4-1.6-1.4-4.1-1.2-5.4.4-1.4,1.6-1.2,4.1.4,5.5.7.6,1.6.9,2.5.9Z"/>
  <path class="st13" d="M58.5,200.3c.4.1.7.2,1.1.2,1.7,0,3.2-1.1,3.7-2.8.6-2.1-.6-4.2-2.6-4.8-2.1-.6-4.2.6-4.8,2.6-.6,2,.6,4.2,2.6,4.8Z"/>
  <path class="st12" d="M159,417.9c-1.9-1-4.2-.2-5.2,1.7-1,1.9-.2,4.2,1.7,5.2.5.3,1.2.4,1.8.4,1.4,0,2.8-.8,3.4-2.1,1-1.9.2-4.2-1.7-5.2Z"/>
  <path class="st10" d="M63,300.4c-.6-2.1-2.7-3.3-4.8-2.7-2,.6-3.3,2.7-2.7,4.8.5,1.7,2,2.8,3.7,2.8s.7,0,1.1-.2c2.1-.6,3.3-2.7,2.7-4.8Z"/>
  <path class="st9" d="M83.5,145.1c-1.8-1.2-4.2-.6-5.3,1.2-1.1,1.8-.6,4.2,1.2,5.3.6.4,1.3.6,2.1.6,1.3,0,2.5-.6,3.3-1.8,1.1-1.8.6-4.2-1.2-5.3Z"/>
  <path class="st11" d="M65.3,170.1c-.9,2,0,4.3,1.9,5.1.5.2,1.1.3,1.6.3,1.5,0,2.9-.9,3.5-2.3.9-2,0-4.2-1.9-5.1-1.9-.9-4.2,0-5.1,1.9Z"/>
</svg>